<svg width="40" height="40" viewBox="0 0 40 40" fill="none" xmlns="http://www.w3.org/2000/svg">
<path fill-rule="evenodd" clip-rule="evenodd" d="M3.33333 1.25H1.25V25.4167H38.75V1.25H3.33333ZM5.41667 21.25V5.41667H34.5833V21.25H5.41667ZM18.3333 6.66667C16.4924 6.66667 15 8.15905 15 10V10.782C15 12.3116 16.041 13.6449 17.5248 14.0158L21.6667 15.0513V16.6667H18.3333V15.8333H15V16.6667C15 18.5077 16.4924 20 18.3333 20H21.6667C23.5077 20 25 18.5077 25 16.6667V15.0513C25 13.5217 23.959 12.1885 22.4752 11.8175L18.3333 10.782V10H21.6667V10.8333H25V10C25 8.15905 23.5077 6.66667 21.6667 6.66667H18.3333ZM33.3333 32.0833H6.66667V27.9167H33.3333V32.0833ZM11.6667 38.75H28.3333V34.5833H11.6667V38.75Z" fill="#2C8577"/>
</svg>
