<svg width="80" height="55" viewBox="0 0 80 55" fill="none" xmlns="http://www.w3.org/2000/svg">
<path d="M24.8263 49.3901C21.9588 49.3901 19.5115 48.6944 17.4846 47.303C15.4578 45.9115 14.4443 44.2314 14.4443 42.2629V12.6575C14.4443 10.6889 15.4578 9.00891 17.4846 7.61745C19.5115 6.226 21.9588 5.53027 24.8263 5.53027H60.7638C62.0815 5.53027 63.2096 5.85228 64.1483 6.49629C65.0863 7.14067 65.5554 7.91515 65.5554 8.81976V37.0545C65.5554 37.3886 65.4224 37.6914 65.1561 37.963C64.8899 38.2346 64.5173 38.4435 64.0381 38.5896C63.0266 38.8821 62.228 39.353 61.6423 40.0025C61.0566 40.6516 60.7638 41.4008 60.7638 42.2503C60.7638 43.0993 61.0548 43.8454 61.6367 44.4883C62.2192 45.1311 63.0195 45.5955 64.0381 45.8813C64.5173 46.0275 64.8899 46.2651 65.1561 46.5941C65.4224 46.923 65.5554 47.3068 65.5554 47.7454C65.5554 48.2001 65.3259 48.5878 64.867 48.9088C64.4075 49.2297 63.8384 49.3901 63.1596 49.3901H24.8263ZM29.6323 35.1357C30.3148 35.1357 30.8825 34.978 31.335 34.6625C31.7875 34.3475 32.0138 33.9569 32.0138 33.4909V10.4645C32.0138 9.9985 31.7827 9.60778 31.3206 9.29235C30.859 8.9773 30.2867 8.81976 29.6036 8.81976C28.9211 8.81976 28.3534 8.9773 27.9009 9.29235C27.4484 9.60778 27.2221 9.9985 27.2221 10.4645V33.4909C27.2221 33.9569 27.4532 34.3475 27.9153 34.6625C28.3769 34.978 28.9492 35.1357 29.6323 35.1357ZM24.7895 46.1006H57.4895C57.0103 45.5524 56.6377 44.9493 56.3714 44.2914C56.1052 43.6335 55.9721 42.9573 55.9721 42.2629C55.9721 41.5319 56.1052 40.8466 56.3714 40.207C56.6377 39.5674 57.037 38.9734 57.5693 38.4252H24.7951C23.2719 38.4252 21.9645 38.7983 20.8732 39.5447C19.7818 40.2906 19.236 41.1968 19.236 42.2629C19.236 43.3229 19.7818 44.2275 20.8732 44.9767C21.9645 45.726 23.2701 46.1006 24.7895 46.1006Z" fill="black"/>
</svg>
