<svg width="40" height="40" viewBox="0 0 40 40" fill="none" xmlns="http://www.w3.org/2000/svg">
<path fill-rule="evenodd" clip-rule="evenodd" d="M19.643 2.857C19.643 1.87078 20.4425 1.07129 21.4287 1.07129H34.2859C36.8501 1.07129 38.9287 3.14997 38.9287 5.71415V22.857C38.9287 25.4212 36.8501 27.4999 34.2859 27.4999H22.8573C21.8711 27.4999 21.0716 26.7004 21.0716 25.7141C21.0716 24.7279 21.8711 23.9284 22.8573 23.9284H34.2859C34.8776 23.9284 35.3573 23.4487 35.3573 22.857V5.71415C35.3573 5.1224 34.8776 4.64272 34.2859 4.64272H21.4287C20.4425 4.64272 19.643 3.84323 19.643 2.857ZM11.4287 1.42843C8.2728 1.42843 5.71443 3.9868 5.71443 7.14272C5.71443 9.49966 7.1414 11.5233 9.17851 12.3969C4.73928 13.4177 1.42871 17.3936 1.42871 22.1427V26.4284C1.42871 27.2174 2.06831 27.857 2.85728 27.857H5.89225L7.15554 37.3316C7.25017 38.0413 7.85557 38.5713 8.57157 38.5713H15.7144C16.4609 38.5713 17.0815 37.9964 17.1388 37.2521L18.4659 19.9999H24.643C26.8127 19.9999 28.5716 18.241 28.5716 16.0713C28.5716 13.9016 26.8127 12.1427 24.643 12.1427H14.1973C15.954 11.1679 17.143 9.29418 17.143 7.14272C17.143 3.9868 14.5846 1.42843 11.4287 1.42843Z" fill="#2C8577"/>
</svg>
