<svg width="40" height="40" viewBox="0 0 40 40" fill="none" xmlns="http://www.w3.org/2000/svg">
<g clip-path="url(#clip0_52_7944)">
<path fill-rule="evenodd" clip-rule="evenodd" d="M3.68783 15.361C4.39491 9.97963 8.25389 5.59091 13.3502 4.1094C11.2963 7.5654 10.0151 11.4058 9.70546 15.361H3.68783ZM24.7399 15.361C24.4207 11.3849 22.9662 7.47271 20.9497 4.11134C26.0427 5.59474 29.8986 9.98197 30.6054 15.361H24.7399ZM30.6269 18.9324H24.7062C24.6926 19.0635 24.6776 19.1944 24.6612 19.3253C24.5382 20.3038 23.6453 20.9974 22.6668 20.8745C21.7057 20.7537 21.0195 19.8902 21.1118 18.9324H13.2775C13.4 20.3732 13.6799 21.8124 14.1273 23.2325C14.4237 24.1731 13.9014 25.1759 12.9607 25.4723C12.0201 25.7686 11.0173 25.2463 10.7209 24.3057C10.1596 22.5239 9.82306 20.7247 9.69354 18.9324H3.6878C4.2394 23.1317 6.70997 26.728 10.1966 28.8106C11.0433 29.3163 11.3197 30.4126 10.8139 31.2594C10.3082 32.106 9.21183 32.3823 8.36517 31.8766C3.35897 28.8863 0 23.4097 0 17.1467C0 7.67683 7.6768 0 17.1467 0C26.6163 0.000174777 34.2934 7.67691 34.2934 17.1467C34.2934 17.7962 34.2571 18.4381 34.1866 19.0701C34.0769 20.0502 33.1937 20.7559 32.2134 20.6464C31.3206 20.5466 30.6554 19.8047 30.6269 18.9324ZM17.1471 4.78334C19.275 7.9422 20.7963 11.6781 21.1533 15.361H13.2911C13.6315 11.6442 14.9764 8.01554 17.1471 4.78334ZM26.5027 21.7132C26.865 21.5562 27.2762 21.5562 27.6385 21.7132L39.1391 26.6962C39.6617 26.9225 40 27.4376 40 28.007C40 28.5763 39.6617 29.0914 39.1391 29.3177L35.1349 31.0529L35.136 35.7011C35.136 36.0914 35.0083 36.4709 34.7723 36.7817L33.3503 35.7014C34.7723 36.7817 34.7729 36.7811 34.7723 36.7817L34.7697 36.7849L34.7671 36.7883L34.7614 36.796L34.7474 36.8137L34.7103 36.86C34.6811 36.8954 34.6437 36.94 34.5977 36.9923C34.5054 37.0963 34.3786 37.2314 34.2154 37.3871C33.8894 37.6977 33.4157 38.092 32.7834 38.48C31.5074 39.2629 29.6174 40 27.0695 40C24.5216 40 22.6335 39.2629 21.3591 38.4789C20.7277 38.0906 20.2549 37.6957 19.9297 37.3846C19.7669 37.2289 19.6403 37.0934 19.5484 36.9891C19.5025 36.9369 19.4651 36.8923 19.4362 36.8569L19.399 36.8103L19.3851 36.7923L19.3793 36.7849L19.3767 36.7811C19.3761 36.7803 19.3742 36.778 20.7989 35.7014L19.3742 36.778C19.1407 36.4691 19.014 36.0926 19.0132 35.7051L19.0034 31.0514L17.7127 30.4923V36.4154C17.7127 37.4017 16.9133 38.2011 15.927 38.2011C14.9408 38.2011 14.1413 37.4017 14.1413 36.4154V28.3644C14.1413 28.3005 14.1447 28.2374 14.1512 28.1752C14.1447 28.1199 14.1413 28.0637 14.1413 28.007C14.1413 27.4376 14.4795 26.9225 15.0019 26.6962L26.5027 21.7132ZM22.5781 32.6003L22.5831 34.97C22.7454 35.1077 22.9604 35.2709 23.2304 35.4369C23.9984 35.9094 25.2456 36.4286 27.0695 36.4286C28.8937 36.4286 30.144 35.9091 30.9154 35.436C31.1857 35.27 31.4014 35.1071 31.5643 34.9691L31.564 32.6L27.6385 34.3009C27.2762 34.4577 26.865 34.4577 26.5027 34.3009L22.5781 32.6003Z" fill="#2C8577"/>
</g>
<defs>
<clipPath id="clip0_52_7944">
<rect width="40" height="40" fill="white"/>
</clipPath>
</defs>
</svg>
