<svg width="80" height="80" viewBox="0 0 80 80" fill="none" xmlns="http://www.w3.org/2000/svg">
<path d="M33.0524 39.9997C31.9344 39.9997 31.016 39.5737 30.2972 38.7219C29.5785 37.8701 29.3256 36.9118 29.5385 35.8469L30.7364 28.6594C31.1624 26.3701 32.2405 24.4934 33.9708 23.0292C35.7011 21.565 37.711 20.833 40.0003 20.833C42.343 20.833 44.3794 21.565 46.1097 23.0292C47.84 24.4934 48.9181 26.3701 49.3441 28.6594L50.542 35.8469C50.7549 36.9118 50.5021 37.8701 49.7833 38.7219C49.0646 39.5737 48.1462 39.9997 47.0281 39.9997H33.0524ZM34.4899 35.208H45.5906L44.6323 29.458C44.4194 28.34 43.8868 27.4215 43.035 26.7028C42.1832 25.984 41.185 25.6247 40.0403 25.6247C38.8955 25.6247 37.8973 25.984 37.0455 26.7028C36.1937 27.4215 35.6611 28.34 35.4482 29.458L34.4899 35.208ZM12.7677 45.6778C11.7029 45.7257 10.7752 45.5154 9.98453 45.0469C9.1939 44.5784 8.6788 43.8522 8.43921 42.8683C8.34338 42.4466 8.33539 42.0229 8.41526 41.5969C8.49512 41.1709 8.61491 40.7628 8.77463 40.3726C8.77463 40.421 8.74801 40.3234 8.69477 40.0795C8.69477 40.0263 8.46051 39.4657 7.99199 38.3977C7.87487 37.8152 7.92278 37.2977 8.13574 36.8452C8.3487 36.3927 8.66814 35.9534 9.09408 35.5275L9.2538 35.3677C9.36028 34.4626 9.7271 33.7173 10.3543 33.1316C10.9809 32.5459 11.7588 32.2531 12.6878 32.2531C12.7411 32.2531 13.1713 32.333 13.9784 32.4927L14.2052 32.4129C14.4714 32.2 14.7821 32.0268 15.1372 31.8938C15.4917 31.7607 15.8687 31.6941 16.268 31.6941C16.7562 31.6941 17.2133 31.7872 17.6392 31.9736C18.0652 32.16 18.3926 32.4161 18.6215 32.7419C18.6673 32.7419 18.7017 32.7536 18.7245 32.777C18.7474 32.8005 18.7817 32.8122 18.8275 32.8122C19.4692 32.8585 20.0306 33.0566 20.5118 33.4063C20.9926 33.7557 21.366 34.2318 21.6323 34.8351C21.7388 35.1604 21.7787 35.4736 21.7521 35.775C21.7254 36.0769 21.6589 36.3671 21.5524 36.6455C21.5524 36.752 21.5791 36.8319 21.6323 36.8851C21.9554 37.2125 22.2092 37.5751 22.3933 37.9728C22.5781 38.3705 22.6705 38.7799 22.6705 39.2011C22.6705 39.3076 22.5374 39.7917 22.2712 40.6537C22.218 40.7555 22.218 40.8569 22.2712 40.958C22.3243 41.1709 22.351 41.5437 22.351 42.0761C22.351 43.0344 21.9458 43.8742 21.1355 44.5957C20.3257 45.3171 19.3422 45.6778 18.1847 45.6778H12.7677ZM66.1876 45.59C64.6483 45.59 63.333 45.0392 62.2416 43.9376C61.1503 42.836 60.6045 41.5119 60.6045 39.9653C60.6045 39.4026 60.6976 38.8684 60.884 38.3625C61.0704 37.8567 61.2966 37.3909 61.5628 36.965L59.5663 35.208C59.1403 34.782 59.0605 34.3029 59.3267 33.7705C59.593 33.2382 60.0063 32.9719 60.567 32.9719H66.1764C67.7188 32.9719 69.0391 33.5221 70.1375 34.6226C71.2359 35.7236 71.785 37.0469 71.785 38.5925V39.9973C71.785 41.5429 71.2369 42.8614 70.1407 43.9528C69.0445 45.0442 67.7268 45.59 66.1876 45.59ZM1.66699 56.7705V54.9337C1.66699 52.8329 2.78505 51.1496 5.02116 49.8841C7.25727 48.6186 10.1429 47.9858 13.6781 47.9858C14.3255 47.9858 14.9479 47.999 15.5453 48.0257C16.1426 48.0524 16.7341 48.1116 17.3198 48.2038C16.8938 49.1233 16.5744 50.0507 16.3614 50.9862C16.1485 51.9217 16.042 52.918 16.042 53.9754V59.1663H4.06283C3.38401 59.1663 2.81513 58.9367 2.35619 58.4771C1.89673 58.0183 1.66699 57.4493 1.66699 56.7705ZM20.8337 56.7705V53.9754C20.8337 50.5147 22.6039 47.7195 26.1444 45.59C29.685 43.4604 34.3035 42.3955 40.0003 42.3955C45.7503 42.3955 50.3823 43.4604 53.8962 45.59C57.41 47.7195 59.167 50.5147 59.167 53.9754V56.7705C59.167 57.4493 58.9375 58.0183 58.4786 58.4771C58.0191 58.9367 57.45 59.1663 56.7712 59.1663H23.2295C22.5507 59.1663 21.9817 58.9367 21.5229 58.4771C21.0633 58.0183 20.8337 57.4493 20.8337 56.7705ZM66.3545 47.9858C69.9482 47.9858 72.8432 48.6186 75.0394 49.8841C77.2356 51.1496 78.3337 52.8329 78.3337 54.9337V56.7705C78.3337 57.4493 78.1041 58.0183 77.6453 58.4771C77.1857 58.9367 76.6166 59.1663 75.9378 59.1663H63.9587V53.9754C63.9587 52.918 63.8655 51.9217 63.6791 50.9862C63.4927 50.0507 63.1867 49.1233 62.7607 48.2038C63.3464 48.1116 63.9366 48.0524 64.5313 48.0257C65.1259 47.999 65.7337 47.9858 66.3545 47.9858ZM34.4899 35.208L35.4482 29.458C35.6611 28.34 36.1937 27.4215 37.0455 26.7028C37.8973 25.984 38.8823 25.6247 40.0003 25.6247C41.1716 25.6247 42.1832 25.984 43.035 26.7028C43.8868 27.4215 44.4194 28.34 44.6323 29.458L45.5906 35.208H34.4899Z" fill="black"/>
</svg>
