<svg width="24" height="24" viewBox="0 0 24 24" fill="none" xmlns="http://www.w3.org/2000/svg">
<g clip-path="url(#clip0_170_936)">
<g clip-path="url(#clip1_170_936)">
<path d="M17.62 10.7506C17.19 10.7506 16.85 10.4006 16.85 9.98059C16.85 9.61059 16.48 8.84059 15.86 8.17059C15.25 7.52059 14.58 7.14059 14.02 7.14059C13.59 7.14059 13.25 6.79059 13.25 6.37059C13.25 5.95059 13.6 5.60059 14.02 5.60059C15.02 5.60059 16.07 6.14059 16.99 7.11059C17.85 8.02059 18.4 9.15059 18.4 9.97059C18.4 10.4006 18.05 10.7506 17.62 10.7506Z" fill="white"/>
<path d="M21.2298 10.75C20.7998 10.75 20.4598 10.4 20.4598 9.98C20.4598 6.43 17.5698 3.55 14.0298 3.55C13.5998 3.55 13.2598 3.2 13.2598 2.78C13.2598 2.36 13.5998 2 14.0198 2C18.4198 2 21.9998 5.58 21.9998 9.98C21.9998 10.4 21.6498 10.75 21.2298 10.75Z" fill="white"/>
<path opacity="0.4" d="M11.79 14.21L8.52 17.48C8.16 17.16 7.81 16.83 7.47 16.49C6.44 15.45 5.51 14.36 4.68 13.22C3.86 12.08 3.2 10.94 2.72 9.81C2.24 8.67 2 7.58 2 6.54C2 5.86 2.12 5.21 2.36 4.61C2.6 4 2.98 3.44 3.51 2.94C4.15 2.31 4.85 2 5.59 2C5.87 2 6.15 2.06 6.4 2.18C6.66 2.3 6.89 2.48 7.07 2.74L9.39 6.01C9.57 6.26 9.7 6.49 9.79 6.71C9.88 6.92 9.93 7.13 9.93 7.32C9.93 7.56 9.86 7.8 9.72 8.03C9.59 8.26 9.4 8.5 9.16 8.74L8.4 9.53C8.29 9.64 8.24 9.77 8.24 9.93C8.24 10.01 8.25 10.08 8.27 10.16C8.3 10.24 8.33 10.3 8.35 10.36C8.53 10.69 8.84 11.12 9.28 11.64C9.73 12.16 10.21 12.69 10.73 13.22C11.09 13.57 11.44 13.91 11.79 14.21Z" fill="white"/>
<path d="M21.9706 18.33C21.9706 18.61 21.9206 18.9 21.8206 19.18C21.7906 19.26 21.7606 19.34 21.7206 19.42C21.5506 19.78 21.3306 20.12 21.0406 20.44C20.5506 20.98 20.0106 21.37 19.4006 21.62C19.3906 21.62 19.3806 21.63 19.3706 21.63C18.7806 21.87 18.1406 22 17.4506 22C16.4306 22 15.3406 21.76 14.1906 21.27C13.0406 20.78 11.8906 20.12 10.7506 19.29C10.3606 19 9.97059 18.71 9.60059 18.4L12.8706 15.13C13.1506 15.34 13.4006 15.5 13.6106 15.61C13.6606 15.63 13.7206 15.66 13.7906 15.69C13.8706 15.72 13.9506 15.73 14.0406 15.73C14.2106 15.73 14.3406 15.67 14.4506 15.56L15.2106 14.81C15.4606 14.56 15.7006 14.37 15.9306 14.25C16.1606 14.11 16.3906 14.04 16.6406 14.04C16.8306 14.04 17.0306 14.08 17.2506 14.17C17.4706 14.26 17.7006 14.39 17.9506 14.56L21.2606 16.91C21.5206 17.09 21.7006 17.3 21.8106 17.55C21.9106 17.8 21.9706 18.05 21.9706 18.33Z" fill="white"/>
</g>
</g>
<defs>
<clipPath id="clip0_170_936">
<rect width="24" height="24" fill="white"/>
</clipPath>
<clipPath id="clip1_170_936">
<rect width="24" height="24" fill="white"/>
</clipPath>
</defs>
</svg>
