<svg width="63" height="62" viewBox="0 0 63 62" fill="none" xmlns="http://www.w3.org/2000/svg">
<g clip-path="url(#clip0_52_7957)">
<path fill-rule="evenodd" clip-rule="evenodd" d="M21.3743 6.64286C14.5398 6.64286 8.9993 12.0954 8.9993 18.8214C8.9993 19.726 9.09893 20.6038 9.28667 21.4461C9.68609 23.2379 8.53391 25.009 6.71325 25.4021C4.89255 25.7951 3.09285 24.6613 2.69346 22.8695C2.40215 21.5626 2.24929 20.2077 2.24929 18.8214C2.24929 8.42664 10.8119 0 21.3743 0C24.3014 0 27.0837 0.649406 29.5725 1.81292C31.2561 2.60004 31.9726 4.58131 31.1728 6.23822C30.373 7.89517 28.3597 8.60029 26.6761 7.81315C25.0732 7.06379 23.2784 6.64286 21.3743 6.64286ZM33.7493 14.3929C33.7493 6.44388 40.2971 0 48.3743 0C56.4514 0 62.9993 6.44388 62.9993 14.3929C62.9993 22.3418 56.4514 28.7857 48.3743 28.7857C40.2971 28.7857 33.7493 22.3418 33.7493 14.3929ZM54.8629 11.9214C55.9613 10.8405 55.9613 9.08805 54.8629 8.00712C53.7649 6.9262 51.9838 6.9262 50.8853 8.00712L46.3853 12.4357C45.2873 13.5166 45.2873 15.2691 46.3853 16.35C47.4838 17.4309 49.2649 17.4309 50.3629 16.35L54.8629 11.9214ZM6.13698 47.1284C5.42882 46.2573 5.49947 45.0014 6.3011 44.2126C7.16996 43.3575 8.57864 43.3575 9.4475 44.2126L14.8856 49.5641C15.6899 50.356 16.8996 50.5929 17.9506 50.1642C19.0015 49.736 19.6868 48.7267 19.6868 47.6071V21.5893C19.6868 20.0606 20.946 18.8214 22.4993 18.8214C24.0526 18.8214 25.3118 20.0606 25.3118 21.5893V36.9654C25.3118 37.7084 25.6153 38.4201 26.154 38.9406C26.6928 39.4611 27.4214 39.7465 28.1763 39.7328L38.8009 39.5395C44.0425 39.4442 48.1966 43.8678 47.6876 49.0026L46.6999 58.9633C46.5491 60.485 47.6804 61.8384 49.2262 61.9867C50.7719 62.1355 52.1476 61.0222 52.2983 59.501L53.2861 49.5402C54.1217 41.1103 47.302 33.8483 38.697 34.0048L30.9368 34.1459V21.5893C30.9368 17.0033 27.1592 13.2857 22.4993 13.2857C17.8394 13.2857 14.0618 17.0033 14.0618 21.5893V40.925L13.425 40.2982C10.3594 37.2813 5.38917 37.2813 2.32363 40.2982C-0.504705 43.0817 -0.754091 47.5128 1.74461 50.5867L10.1781 60.9611C11.1485 62.155 12.9183 62.3485 14.1312 61.3933C15.3442 60.4385 15.5408 58.6967 14.5705 57.5032L6.13698 47.1284Z" fill="black"/>
</g>
<defs>
<clipPath id="clip0_52_7957">
<rect width="63" height="62" fill="white"/>
</clipPath>
</defs>
</svg>
