<svg width="933" height="175" viewBox="0 0 933 175" fill="none" xmlns="http://www.w3.org/2000/svg">
<g opacity="0.6">
<path d="M0 3C0 1.34314 1.34315 0 3 0H930C931.657 0 933 1.34315 933 3V172C933 173.657 931.657 175 930 175H3C1.34314 175 0 173.657 0 172V3Z" fill="url(#paint0_linear_109_728)" fill-opacity="0.65"/>
<path d="M0 3C0 1.34314 1.34315 0 3 0H930C931.657 0 933 1.34315 933 3V172C933 173.657 931.657 175 930 175H3C1.34314 175 0 173.657 0 172V3Z" fill="black" fill-opacity="0.2"/>
</g>
<defs>
<linearGradient id="paint0_linear_109_728" x1="466.5" y1="0" x2="466.5" y2="175" gradientUnits="userSpaceOnUse">
<stop stop-color="#D9D9D9"/>
<stop offset="0.674971" stop-color="#2C8577"/>
</linearGradient>
</defs>
</svg>
