<svg width="40" height="40" viewBox="0 0 40 40" fill="none" xmlns="http://www.w3.org/2000/svg">
<path fill-rule="evenodd" clip-rule="evenodd" d="M23.5606 4.61287C22.982 4.375 22.2484 4.375 20.7812 4.375C19.3141 4.375 18.5805 4.375 18.0019 4.61287C17.2303 4.93005 16.6173 5.53841 16.2977 6.30411C16.1519 6.65366 16.0948 7.06016 16.0724 7.65311C16.0396 8.5245 15.5893 9.33108 14.8284 9.76708C14.0675 10.2031 13.1385 10.1868 12.3617 9.77931C11.8331 9.50203 11.4498 9.34784 11.0719 9.29847C10.2439 9.19028 9.40653 9.41295 8.744 9.9175C8.24709 10.2959 7.88029 10.9264 7.14672 12.1874C6.41314 13.4484 6.04636 14.0789 5.96461 14.6952C5.85559 15.5169 6.07997 16.3479 6.58836 17.0055C6.8204 17.3056 7.14651 17.5578 7.65265 17.8734C8.39673 18.3375 8.8755 19.128 8.87545 20C8.8754 20.872 8.39665 21.6623 7.65265 22.1263C7.14643 22.442 6.82026 22.6944 6.5882 22.9945C6.07981 23.652 5.85545 24.483 5.96445 25.3047C6.0462 25.9209 6.413 26.5516 7.14656 27.8125C7.88014 29.0734 8.24693 29.7041 8.74384 30.0823C9.40637 30.5869 10.2437 30.8095 11.0717 30.7014C11.4497 30.652 11.8329 30.4978 12.3614 30.2206C13.1383 29.8131 14.0673 29.7969 14.8283 30.2328C15.5893 30.6689 16.0396 31.4755 16.0724 32.347C16.0948 32.9398 16.1519 33.3464 16.2977 33.6959C16.6173 34.4616 17.2303 35.07 18.0019 35.3872C18.5805 35.625 19.3141 35.625 20.7812 35.625C22.2484 35.625 22.982 35.625 23.5606 35.3872C24.3322 35.07 24.9452 34.4616 25.2647 33.6959C25.4106 33.3464 25.4678 32.9398 25.4902 32.3469C25.523 31.4755 25.9731 30.6689 26.7341 30.2328C27.495 29.7967 28.4241 29.8131 29.2009 30.2206C29.7295 30.4978 30.1127 30.6519 30.4906 30.7013C31.3186 30.8095 32.1559 30.5869 32.8184 30.0823C33.3155 29.7039 33.6822 29.0734 34.4158 27.8123C35.1494 26.5514 35.5161 25.9209 35.598 25.3047C35.7069 24.483 35.4825 23.6519 34.9742 22.9944C34.742 22.6942 34.4159 22.4419 33.9097 22.1263C33.1658 21.6623 32.687 20.8719 32.687 19.9998C32.687 19.1278 33.1658 18.3377 33.9097 17.8737C34.4161 17.558 34.7422 17.3058 34.9744 17.0055C35.4827 16.348 35.707 15.517 35.5981 14.6953C35.5163 14.079 35.1495 13.4485 34.4159 12.1875C33.6823 10.9265 33.3156 10.296 32.8186 9.91761C32.1561 9.41306 31.3188 9.19039 30.4908 9.29858C30.1128 9.34795 29.7295 9.50213 29.2011 9.77938C28.4242 10.1869 27.4952 10.2032 26.7342 9.76713C25.9733 9.33111 25.523 8.52447 25.49 7.65303C25.4677 7.06013 25.4106 6.65364 25.2647 6.30411C24.9452 5.53841 24.3322 4.93005 23.5606 4.61287ZM20.7812 24.6875C23.3898 24.6875 25.5044 22.5889 25.5044 20C25.5044 17.4111 23.3898 15.3125 20.7812 15.3125C18.1727 15.3125 16.0581 17.4111 16.0581 20C16.0581 22.5889 18.1727 24.6875 20.7812 24.6875Z" fill="#2C8577"/>
</svg>
