<svg width="40" height="40" viewBox="0 0 40 40" fill="none" xmlns="http://www.w3.org/2000/svg">
<path d="M31.3636 16.1675H26.8182C26.4318 16.1675 26.108 15.9811 25.8468 15.6084C25.5853 15.2361 25.4545 14.7745 25.4545 14.2235C25.4545 13.673 25.5853 13.2152 25.8468 12.8502C26.108 12.4853 26.4318 12.3027 26.8182 12.3027H31.3636V5.86151C31.3636 5.31401 31.4952 4.85501 31.7582 4.48438C32.0209 4.11427 32.3466 3.92915 32.7355 3.92915C33.1239 3.92915 33.447 4.11427 33.7045 4.48438C33.9621 4.85501 34.0909 5.31401 34.0909 5.86151V12.3027H38.6364C39.0227 12.3027 39.3466 12.4891 39.6082 12.8618C39.8694 13.2341 40 13.6957 40 14.2467C40 14.7972 39.8694 15.255 39.6082 15.62C39.3466 15.9849 39.0227 16.1675 38.6364 16.1675H34.0909V22.6087C34.0909 23.1562 33.9594 23.6151 33.6964 23.9852C33.4336 24.3558 33.1079 24.5411 32.7191 24.5411C32.3306 24.5411 32.0075 24.3558 31.75 23.9852C31.4925 23.6151 31.3636 23.1562 31.3636 22.6087V16.1675ZM14.5455 19.3237C12.5455 19.3237 10.9091 18.4219 9.63636 16.6184C8.36364 14.8148 7.72727 12.496 7.72727 9.66183C7.72727 6.8277 8.36364 4.50886 9.63636 2.70531C10.9091 0.901771 12.5455 0 14.5455 0C16.5455 0 18.1818 0.901771 19.4545 2.70531C20.7273 4.50886 21.3636 6.8277 21.3636 9.66183C21.3636 12.496 20.7273 14.8148 19.4545 16.6184C18.1818 18.4219 16.5455 19.3237 14.5455 19.3237ZM0 36.1353V33.9452C0 32.4423 0.265155 31.0789 0.795455 29.8551C1.32575 28.6312 2.09091 27.7188 3.09091 27.1175C5.36364 25.7005 7.38391 24.7021 9.15182 24.1224C10.9197 23.5427 12.7152 23.2528 14.5382 23.2528C16.3612 23.2528 18.1515 23.5427 19.9091 24.1224C21.6666 24.7021 23.6818 25.7005 25.9545 27.1175C26.9545 27.7617 27.7273 28.685 28.2727 29.8873C28.8182 31.0896 29.0909 32.4423 29.0909 33.9452V36.1353C29.0909 37.1981 28.8239 38.1078 28.29 38.8644C27.7557 39.6215 27.1136 40 26.3636 40H2.72727C1.97727 40 1.3353 39.6215 0.801364 38.8644C0.267118 38.1078 0 37.1981 0 36.1353Z" fill="#2C8577"/>
</svg>
